# xmcd
#
# Track frame offsets:
#	150
#	18813
#	38568
#	56176
#	70591
#	78871
#	96884
#	112704
#	131253
#	142590
#	168139
#	185910
#	204341
#	211360
#	229034
#	250683
#	258001
#	279864
#
# Disc length: 4026 seconds
#
# Revision: 1
# Processed by: cddbd v1.5.2PL0 Copyright (c) Steve Scherf et al.
# Submitted via: audiograbber 1.83.01
#
DISCID=d90fb812
DTITLE=Veteran Click - The Return Of The V.C.
DYEAR=2006
DGENRE=Hip-Hop
TTITLE0=The Return
TTITLE1=Rep'n For The MO
TTITLE2=Let'em Know
TTITLE3=I Really Need It
TTITLE4=Weapon Drop
TTITLE5=What I Think
TTITLE6=Structure
TTITLE7=Greed
TTITLE8=Surgeon General Drop
TTITLE9=Like Sex
TTITLE10=Tonite
TTITLE11=And Then What?
TTITLE12=E-Skool Drop
TTITLE13=On The Streets
TTITLE14=Rap Game
TTITLE15=Popper Drop
TTITLE16=Posse Cut
TTITLE17=It's The V.C.
EXTD=
EXTT0=
EXTT1=
EXTT2=
EXTT3=
EXTT4=
EXTT5=
EXTT6=
EXTT7=
EXTT8=
EXTT9=
EXTT10=
EXTT11=
EXTT12=
EXTT13=
EXTT14=
EXTT15=
EXTT16=
EXTT17=
PLAYORDER=
